<?xml version="1.0" encoding="utf-8"?>
<!-- Generator: Adobe Illustrator 24.1.3, SVG Export Plug-In . SVG Version: 6.00 Build 0)  -->
<svg version="1.1" id="Layer_1" xmlns="http://www.w3.org/2000/svg" xmlns:xlink="http://www.w3.org/1999/xlink" x="0px" y="0px"
	 viewBox="0 0 849 584" style="enable-background:new 0 0 849 584;" xml:space="preserve">
<style type="text/css">
	.st0{fill:#FFFFFF;stroke:#F9F9F9;stroke-width:0.5;}
	.st1{fill:#EDEDED;}
	.st2{fill:none;stroke:#DADADA;stroke-width:1.395;stroke-linecap:round;stroke-linejoin:round;}
	.st3{fill:#DADADA;}
	.st4{fill:#FFFFFF;}
	.st5{enable-background:new    ;}
	.st6{display:none;}
	.st7{display:inline;fill:#DADADA;}
	.st8{font-family:'SourceSansPro-Regular';}
	.st9{font-size:6.51px;}
</style>
<desc>Created with Sketch.</desc>
<g id="development">
	<g id="browser">
		<g transform="translate(34.000000, 26.000000)">
			<g id="browser-bg_1_">
				<g id="Mask_1_">
					<rect id="path-2_2_" class="st0" width="781" height="516"/>
				</g>
			</g>
			<g>
				<rect id="XMLID_22_" class="st1" width="781" height="27.7"/>
				<g id="XMLID_17_" transform="translate(10.233091, 11.621996)">
					<polyline id="XMLID_21_" class="st2" points="7.5,3.3 0.3,3.3 3.5,0.1 					"/>
					<polyline id="XMLID_18_" class="st2" points="7.5,3.3 0.3,3.3 3.5,6.4 					"/>
				</g>
				<g id="XMLID_14_" transform="translate(24.187305, 11.621996)">
					<polyline id="XMLID_16_" class="st2" points="0.2,3.3 7.4,3.3 4.2,0.1 					"/>
					<polyline id="XMLID_15_" class="st2" points="0.2,3.3 7.4,3.3 4.2,6.4 					"/>
				</g>
				<g id="XMLID_5_" transform="translate(37.676379, 10.692237)">
					<path id="XMLID_13_" class="st3" d="M8.3,4l-3-1c-0.1,0-0.2-0.2,0-0.3l2.4-2C7.8,0.5,8,0.6,8,0.7l0.6,3.1C8.6,4,8.4,4,8.3,4z"
						/>
					<path id="XMLID_6_" class="st3" d="M6.7,5.4C6.2,6.3,5.2,7,4,6.9C2.7,6.8,1.6,5.6,1.6,4.3c0-1.5,1.2-2.7,2.7-2.7
						C5.2,1.6,6,2,6.4,2.7L8.1,3C7.6,1.3,6,0.1,4.1,0.1c-2.1,0-3.9,1.8-4,4c0,2.3,1.8,4.2,4,4.2c1.6,0,3-1,3.7-2.3
						C8,5.6,7.7,5.1,7.3,5l0,0C7.1,5,6.8,5.1,6.7,5.4z"/>
				</g>
				<path id="XMLID_2_" class="st4" d="M769.6,21.3H56.1c-0.7,0-1.4-0.7-1.4-1.5V9.3c0-0.8,0.6-1.5,1.4-1.5h713.5
					c0.7,0,1.4,0.7,1.4,1.5v10.4C771,20.6,770.4,21.3,769.6,21.3z"/>
			</g>
			<g class="st5">
				<path class="st3" d="M60.9,16.5v-3.2h0.6l0.1,0.6h0c0.1-0.2,0.2-0.4,0.4-0.5s0.3-0.2,0.5-0.2c0.2,0,0.3,0,0.4,0.1L62.8,14
					c-0.1,0-0.1,0-0.2,0s-0.1,0-0.2,0c-0.1,0-0.3,0-0.4,0.1c-0.1,0.1-0.3,0.3-0.4,0.5v2H60.9z"/>
				<path class="st3" d="M64.7,16.6c-0.2,0-0.4,0-0.6-0.1c-0.2-0.1-0.4-0.2-0.5-0.3c-0.1-0.1-0.3-0.3-0.3-0.5
					c-0.1-0.2-0.1-0.4-0.1-0.7c0-0.3,0-0.5,0.1-0.7c0.1-0.2,0.2-0.4,0.3-0.5s0.3-0.3,0.5-0.3c0.2-0.1,0.4-0.1,0.5-0.1
					c0.2,0,0.4,0,0.6,0.1c0.2,0.1,0.3,0.2,0.4,0.3c0.1,0.1,0.2,0.3,0.3,0.5c0.1,0.2,0.1,0.4,0.1,0.6c0,0.1,0,0.1,0,0.2
					c0,0.1,0,0.1,0,0.2h-2c0,0.3,0.1,0.5,0.3,0.7s0.4,0.2,0.6,0.2c0.1,0,0.3,0,0.4-0.1c0.1,0,0.2-0.1,0.4-0.2l0.3,0.5
					c-0.2,0.1-0.3,0.2-0.5,0.2S64.9,16.6,64.7,16.6z M63.8,14.6h1.4c0-0.2-0.1-0.4-0.2-0.6c-0.1-0.1-0.3-0.2-0.5-0.2
					c-0.2,0-0.4,0.1-0.5,0.2S63.9,14.4,63.8,14.6z"/>
				<path class="st3" d="M67.5,16.6c-0.2,0-0.4,0-0.7-0.1s-0.4-0.2-0.6-0.3l0.4-0.5c0.1,0.1,0.3,0.2,0.4,0.3
					c0.1,0.1,0.3,0.1,0.5,0.1c0.2,0,0.3,0,0.4-0.1s0.1-0.2,0.1-0.3c0-0.1,0-0.1-0.1-0.2s-0.1-0.1-0.2-0.1s-0.1-0.1-0.2-0.1
					c-0.1,0-0.2-0.1-0.2-0.1c-0.1,0-0.2-0.1-0.3-0.1s-0.2-0.1-0.3-0.2c-0.1-0.1-0.2-0.2-0.2-0.3s-0.1-0.2-0.1-0.3
					c0-0.3,0.1-0.5,0.3-0.7c0.2-0.2,0.5-0.3,0.9-0.3c0.2,0,0.4,0,0.6,0.1c0.2,0.1,0.3,0.2,0.5,0.3l-0.3,0.5C68.2,14,68.1,14,68,13.9
					c-0.1-0.1-0.2-0.1-0.4-0.1c-0.2,0-0.3,0-0.4,0.1c-0.1,0.1-0.1,0.2-0.1,0.3c0,0.1,0,0.1,0.1,0.2c0,0,0.1,0.1,0.1,0.1
					c0.1,0,0.1,0.1,0.2,0.1c0.1,0,0.2,0.1,0.3,0.1c0.1,0,0.2,0.1,0.3,0.1s0.2,0.1,0.3,0.2c0.1,0.1,0.2,0.2,0.2,0.3
					c0.1,0.1,0.1,0.2,0.1,0.4c0,0.1,0,0.3-0.1,0.4c-0.1,0.1-0.1,0.2-0.2,0.3s-0.2,0.2-0.4,0.2S67.7,16.6,67.5,16.6z"/>
				<path class="st3" d="M70.4,16.6c-0.3,0-0.6-0.1-0.7-0.3c-0.2-0.2-0.2-0.5-0.2-0.9v-2h0.7v1.9c0,0.3,0,0.5,0.1,0.6
					c0.1,0.1,0.2,0.2,0.4,0.2c0.1,0,0.3,0,0.4-0.1c0.1-0.1,0.2-0.2,0.3-0.3v-2.2h0.7v3.2h-0.6l-0.1-0.5h0c-0.1,0.2-0.3,0.3-0.5,0.4
					C70.8,16.6,70.6,16.6,70.4,16.6z"/>
				<path class="st3" d="M73,16.5v-3.2h0.6l0.1,0.4h0c0.1-0.1,0.3-0.3,0.4-0.4c0.2-0.1,0.3-0.1,0.5-0.1c0.2,0,0.4,0,0.6,0.1
					s0.2,0.2,0.3,0.4c0.2-0.2,0.3-0.3,0.5-0.4s0.3-0.2,0.6-0.2c0.3,0,0.6,0.1,0.7,0.3c0.2,0.2,0.2,0.5,0.2,0.9v2h-0.8v-1.9
					c0-0.3,0-0.5-0.1-0.6c-0.1-0.1-0.2-0.2-0.4-0.2c-0.2,0-0.4,0.1-0.7,0.4v2.2h-0.7v-1.9c0-0.3,0-0.5-0.1-0.6
					c-0.1-0.1-0.2-0.2-0.4-0.2c-0.2,0-0.4,0.1-0.7,0.4v2.2H73z"/>
				<path class="st3" d="M79.9,16.6c-0.2,0-0.4,0-0.6-0.1c-0.2-0.1-0.4-0.2-0.5-0.3c-0.1-0.1-0.3-0.3-0.3-0.5
					c-0.1-0.2-0.1-0.4-0.1-0.7c0-0.3,0-0.5,0.1-0.7c0.1-0.2,0.2-0.4,0.3-0.5s0.3-0.3,0.5-0.3c0.2-0.1,0.4-0.1,0.5-0.1
					c0.2,0,0.4,0,0.6,0.1c0.2,0.1,0.3,0.2,0.4,0.3c0.1,0.1,0.2,0.3,0.3,0.5c0.1,0.2,0.1,0.4,0.1,0.6c0,0.1,0,0.1,0,0.2
					c0,0.1,0,0.1,0,0.2h-2c0,0.3,0.1,0.5,0.3,0.7S79.7,16,80,16c0.1,0,0.3,0,0.4-0.1c0.1,0,0.2-0.1,0.4-0.2l0.3,0.5
					c-0.2,0.1-0.3,0.2-0.5,0.2S80.1,16.6,79.9,16.6z M79,14.6h1.4c0-0.2-0.1-0.4-0.2-0.6c-0.1-0.1-0.3-0.2-0.5-0.2
					c-0.2,0-0.4,0.1-0.5,0.2S79.1,14.4,79,14.6z"/>
				<path class="st3" d="M82.2,16.6c-0.1,0-0.3,0-0.3-0.1c-0.1-0.1-0.1-0.2-0.1-0.4s0-0.3,0.1-0.4c0.1-0.1,0.2-0.1,0.3-0.1
					c0.1,0,0.3,0,0.3,0.1c0.1,0.1,0.1,0.2,0.1,0.4s0,0.3-0.1,0.4C82.5,16.6,82.4,16.6,82.2,16.6z"/>
				<path class="st3" d="M83.9,16.5l-0.8-3.2h0.8l0.4,1.7c0,0.2,0.1,0.3,0.1,0.5c0,0.2,0.1,0.3,0.1,0.5h0c0-0.2,0.1-0.3,0.1-0.5
					c0-0.2,0.1-0.3,0.1-0.5l0.4-1.7h0.7l0.4,1.7c0,0.2,0.1,0.3,0.1,0.5c0,0.2,0.1,0.3,0.1,0.5h0c0-0.2,0.1-0.3,0.1-0.5
					c0-0.2,0.1-0.3,0.1-0.5l0.4-1.7h0.7l-0.8,3.2H86l-0.4-1.5c0-0.2-0.1-0.3-0.1-0.5c0-0.1-0.1-0.3-0.1-0.5h0c0,0.2-0.1,0.3-0.1,0.5
					c0,0.2-0.1,0.3-0.1,0.5l-0.4,1.5H83.9z"/>
				<path class="st3" d="M89.6,16.6c-0.2,0-0.4,0-0.6-0.1c-0.2-0.1-0.3-0.2-0.5-0.3c-0.1-0.1-0.3-0.3-0.3-0.5
					C88.1,15.5,88,15.2,88,15s0-0.5,0.1-0.7s0.2-0.4,0.3-0.5c0.1-0.1,0.3-0.3,0.5-0.3c0.2-0.1,0.4-0.1,0.6-0.1s0.4,0,0.6,0.1
					c0.2,0.1,0.3,0.2,0.5,0.3c0.1,0.1,0.3,0.3,0.3,0.5s0.1,0.4,0.1,0.7s0,0.5-0.1,0.7c-0.1,0.2-0.2,0.4-0.3,0.5
					c-0.1,0.1-0.3,0.3-0.5,0.3C90,16.6,89.8,16.6,89.6,16.6z M89.6,16c0.2,0,0.4-0.1,0.6-0.3c0.1-0.2,0.2-0.5,0.2-0.8
					c0-0.3-0.1-0.6-0.2-0.8c-0.1-0.2-0.3-0.3-0.6-0.3S89.1,14,89,14.2c-0.1,0.2-0.2,0.5-0.2,0.8c0,0.3,0.1,0.6,0.2,0.8
					C89.1,15.9,89.3,16,89.6,16z"/>
				<path class="st3" d="M91.8,16.5v-3.2h0.6l0.1,0.6h0c0.1-0.2,0.2-0.4,0.4-0.5s0.3-0.2,0.5-0.2c0.2,0,0.3,0,0.4,0.1L93.7,14
					c-0.1,0-0.1,0-0.2,0s-0.1,0-0.2,0c-0.1,0-0.3,0-0.4,0.1c-0.1,0.1-0.3,0.3-0.4,0.5v2H91.8z"/>
				<path class="st3" d="M94.3,16.5V12H95v2.9h0l1.2-1.5H97l-1.1,1.3l1.2,1.9h-0.8l-0.8-1.4L95,15.7v0.8H94.3z"/>
				<path class="st3" d="M97.7,16.5v-3.2h0.6l0.1,0.6h0c0.1-0.2,0.2-0.4,0.4-0.5s0.3-0.2,0.5-0.2c0.2,0,0.3,0,0.4,0.1L99.5,14
					c-0.1,0-0.1,0-0.2,0s-0.1,0-0.2,0c-0.1,0-0.3,0-0.4,0.1c-0.1,0.1-0.3,0.3-0.4,0.5v2H97.7z"/>
				<path class="st3" d="M101,16.6c-0.3,0-0.6-0.1-0.7-0.3c-0.2-0.2-0.2-0.5-0.2-0.9v-2h0.7v1.9c0,0.3,0,0.5,0.1,0.6
					c0.1,0.1,0.2,0.2,0.4,0.2c0.1,0,0.3,0,0.4-0.1c0.1-0.1,0.2-0.2,0.3-0.3v-2.2h0.7v3.2h-0.6l-0.1-0.5h0c-0.1,0.2-0.3,0.3-0.5,0.4
					C101.4,16.6,101.3,16.6,101,16.6z"/>
				<path class="st3" d="M104.1,12.8c-0.1,0-0.2,0-0.3-0.1c-0.1-0.1-0.1-0.2-0.1-0.3s0-0.2,0.1-0.3c0.1-0.1,0.2-0.1,0.3-0.1
					c0.1,0,0.2,0,0.3,0.1c0.1,0.1,0.1,0.2,0.1,0.3s0,0.2-0.1,0.3C104.3,12.8,104.2,12.8,104.1,12.8z M103.7,16.5v-3.2h0.7v3.2H103.7
					z"/>
				<path class="st3" d="M106.5,16.6c-0.2,0-0.3,0-0.5-0.1c-0.1-0.1-0.2-0.1-0.3-0.2c-0.1-0.1-0.1-0.2-0.2-0.4
					c0-0.1-0.1-0.3-0.1-0.5v-1.5h-0.5v-0.6l0.5,0l0.1-0.9h0.6v0.9h0.8v0.6h-0.8v1.5c0,0.4,0.1,0.6,0.4,0.6c0.1,0,0.1,0,0.2,0
					c0.1,0,0.1,0,0.2-0.1l0.1,0.6c-0.1,0-0.2,0.1-0.3,0.1C106.8,16.6,106.7,16.6,106.5,16.6z"/>
				<path class="st3" d="M108.2,16.6c-0.1,0-0.3,0-0.3-0.1c-0.1-0.1-0.1-0.2-0.1-0.4s0-0.3,0.1-0.4c0.1-0.1,0.2-0.1,0.3-0.1
					c0.1,0,0.3,0,0.3,0.1c0.1,0.1,0.1,0.2,0.1,0.4s0,0.3-0.1,0.4C108.4,16.6,108.3,16.6,108.2,16.6z"/>
				<path class="st3" d="M110.8,16.6c-0.2,0-0.4,0-0.6-0.1c-0.2-0.1-0.4-0.2-0.5-0.3c-0.1-0.1-0.2-0.3-0.3-0.5
					c-0.1-0.2-0.1-0.4-0.1-0.7s0-0.5,0.1-0.7s0.2-0.4,0.4-0.5c0.1-0.1,0.3-0.3,0.5-0.3c0.2-0.1,0.4-0.1,0.6-0.1c0.2,0,0.4,0,0.5,0.1
					c0.1,0.1,0.3,0.2,0.4,0.3l-0.4,0.5c-0.1-0.1-0.2-0.1-0.3-0.2s-0.2-0.1-0.3-0.1c-0.3,0-0.5,0.1-0.6,0.3S110,14.6,110,15
					c0,0.3,0.1,0.6,0.2,0.8c0.2,0.2,0.4,0.3,0.6,0.3c0.1,0,0.2,0,0.4-0.1c0.1-0.1,0.2-0.1,0.3-0.2l0.3,0.5c-0.2,0.1-0.3,0.2-0.5,0.3
					C111.2,16.6,111,16.6,110.8,16.6z"/>
				<path class="st3" d="M113.6,16.6c-0.2,0-0.4,0-0.6-0.1c-0.2-0.1-0.3-0.2-0.5-0.3c-0.1-0.1-0.3-0.3-0.3-0.5
					c-0.1-0.2-0.1-0.4-0.1-0.7s0-0.5,0.1-0.7s0.2-0.4,0.3-0.5c0.1-0.1,0.3-0.3,0.5-0.3c0.2-0.1,0.4-0.1,0.6-0.1s0.4,0,0.6,0.1
					c0.2,0.1,0.3,0.2,0.5,0.3c0.1,0.1,0.3,0.3,0.3,0.5s0.1,0.4,0.1,0.7s0,0.5-0.1,0.7c-0.1,0.2-0.2,0.4-0.3,0.5
					c-0.1,0.1-0.3,0.3-0.5,0.3C114,16.6,113.8,16.6,113.6,16.6z M113.6,16c0.2,0,0.4-0.1,0.6-0.3c0.1-0.2,0.2-0.5,0.2-0.8
					c0-0.3-0.1-0.6-0.2-0.8c-0.1-0.2-0.3-0.3-0.6-0.3s-0.4,0.1-0.5,0.3c-0.1,0.2-0.2,0.5-0.2,0.8c0,0.3,0.1,0.6,0.2,0.8
					C113.2,15.9,113.4,16,113.6,16z"/>
				<path class="st3" d="M115.9,16.5v-3.2h0.6l0.1,0.4h0c0.1-0.1,0.3-0.3,0.4-0.4c0.2-0.1,0.3-0.1,0.5-0.1c0.2,0,0.4,0,0.6,0.1
					s0.2,0.2,0.3,0.4c0.2-0.2,0.3-0.3,0.5-0.4s0.3-0.2,0.6-0.2c0.3,0,0.6,0.1,0.7,0.3c0.2,0.2,0.2,0.5,0.2,0.9v2h-0.8v-1.9
					c0-0.3,0-0.5-0.1-0.6c-0.1-0.1-0.2-0.2-0.4-0.2c-0.2,0-0.4,0.1-0.7,0.4v2.2h-0.7v-1.9c0-0.3,0-0.5-0.1-0.6
					c-0.1-0.1-0.2-0.2-0.4-0.2c-0.2,0-0.4,0.1-0.7,0.4v2.2H115.9z"/>
			</g>
			<g id="address_2_" transform="translate(60.468262, 9.227357)" class="st6">
				<text transform="matrix(1 0 0 1 0 7.3212)" class="st7 st8 st9">resume.workruit.com</text>
			</g>
		</g>
	</g>
</g>
</svg>
